<?xml version="1.0" standalone="no"?>
<!DOCTYPE svg PUBLIC "-//W3C//DTD SVG 20010904//EN"
 "http://www.w3.org/TR/2001/REC-SVG-20010904/DTD/svg10.dtd">
<svg version="1.0" xmlns="http://www.w3.org/2000/svg"
 width="167.000000pt" height="167.000000pt" viewBox="0 0 167.000000 167.000000"
 preserveAspectRatio="xMidYMid meet">
<metadata>
Created by potrace 1.11, written by Peter Selinger 2001-2013
</metadata>
<g transform="translate(0.000000,167.000000) scale(0.100000,-0.100000)"
fill="#000000" stroke="none">
<path d="M655 1249 c-93 -60 -174 -110 -180 -113 -7 -2 -7 -7 0 -14 7 -8 43
10 120 59 61 39 140 88 177 110 l66 40 174 -110 c105 -67 177 -106 182 -100 5
5 8 10 5 12 -24 19 -362 227 -367 226 -4 0 -83 -50 -177 -110z"/>
<path d="M532 963 c3 -104 5 -118 20 -118 10 0 18 -4 19 -10 2 -22 19 -43 39
-48 25 -6 64 27 57 47 -4 10 26 12 134 12 76 -1 138 -3 137 -6 -4 -13 24 -48
42 -53 25 -6 64 27 57 47 -4 10 8 13 48 11 30 -1 59 1 65 5 18 11 5 102 -21
143 -13 20 -30 37 -36 38 -16 1 -80 2 -92 0 -4 -1 -7 -43 -7 -93 2 -68 5 -92
14 -90 10 2 10 -3 2 -18 -6 -11 -16 -20 -23 -20 -10 0 -12 32 -9 135 l4 135
-226 0 -227 0 3 -117z m422 2 l0 -90 -89 -5 c-50 -3 -139 -3 -200 0 l-110 5 0
80 c0 44 3 85 7 91 5 7 73 10 200 10 l192 -1 0 -90z m154 13 c11 -18 22 -49
24 -68 l3 -35 -57 0 c-32 0 -58 3 -58 8 0 4 0 34 0 67 l0 60 34 0 c28 0 38 -6
54 -32z m-469 -150 c-5 -10 -14 -18 -19 -18 -5 0 -14 8 -19 18 -9 16 -6 19 19
19 25 0 28 -3 19 -19z"/>
<path d="M0 721 c0 -5 6 -11 13 -13 6 -2 381 -4 831 -3 639 0 820 3 824 13 3
9 -175 12 -832 12 -484 0 -836 -4 -836 -9z"/>
<path d="M6 602 c-3 -3 -6 -68 -6 -144 0 -131 1 -138 20 -138 18 0 20 7 20 55
l0 55 34 0 c41 0 91 38 98 74 6 32 -15 81 -38 91 -24 9 -121 15 -128 7z m112
-45 c17 -13 15 -62 -2 -77 -8 -6 -29 -14 -45 -16 l-31 -5 0 55 c0 34 5 56 13
59 15 5 48 -3 65 -16z"/>
<path d="M927 591 c-44 -23 -66 -59 -72 -115 -7 -67 22 -127 68 -144 61 -22
137 -12 137 18 0 15 -5 17 -27 11 -76 -22 -133 19 -133 95 0 87 35 120 120
112 33 -3 40 0 40 14 0 30 -81 35 -133 9z"/>
<path d="M1400 542 c-30 -5 -50 -20 -60 -47 -11 -30 6 -54 56 -75 24 -11 44
-26 44 -34 0 -22 -35 -37 -70 -31 -26 5 -31 3 -28 -12 5 -25 64 -29 106 -7 29
16 33 22 30 53 -3 32 -9 39 -48 58 -61 29 -62 57 -2 61 27 2 42 8 42 16 0 15
-32 23 -70 18z"/>
<path d="M211 438 c-23 -57 -41 -106 -41 -110 0 -20 38 -6 44 16 5 21 11 24
55 23 42 0 51 -4 60 -24 6 -13 19 -23 31 -23 24 0 24 -1 6 41 -7 19 -26 67
-40 107 -23 61 -31 72 -51 72 -20 0 -28 -14 -64 -102z m82 2 c11 -28 12 -40 4
-41 -7 0 -22 -2 -34 -3 -13 -2 -23 -1 -23 2 0 16 24 82 30 82 4 0 14 -18 23
-40z"/>
<path d="M430 430 c0 -103 1 -110 20 -110 17 0 20 7 20 47 l0 46 36 -46 c21
-26 45 -47 55 -47 25 0 24 8 -11 55 l-30 39 30 24 c60 47 25 102 -65 102 l-55
0 0 -110z m99 62 c13 -24 2 -39 -32 -47 -26 -7 -27 -5 -27 29 0 32 3 36 25 36
13 0 29 -8 34 -18z"/>
<path d="M647 533 c-2 -5 -3 -53 -3 -108 1 -86 4 -100 19 -103 17 -3 19 0 22
48 2 14 3 31 4 39 0 7 19 -8 40 -35 27 -34 47 -50 65 -52 31 -2 32 2 5 31 -12
12 -32 37 -46 54 l-25 32 41 43 c47 49 50 58 19 57 -15 0 -36 -16 -58 -44 -19
-24 -38 -44 -41 -44 -3 -1 -4 13 -3 31 1 17 0 37 -3 45 -5 14 -29 18 -36 6z"/>
<path d="M1135 439 c-22 -56 -41 -106 -43 -110 -8 -21 36 -6 46 15 9 20 17 24
57 23 39 0 49 -5 58 -24 11 -24 47 -32 46 -10 0 6 -17 55 -38 107 -32 81 -41
95 -62 98 -22 3 -27 -6 -64 -99z m92 -35 c-4 -4 -67 -13 -67 -9 0 1 8 24 17
51 l17 49 19 -43 c10 -24 17 -46 14 -48z"/>
<path d="M1548 528 c-2 -7 -4 -56 -4 -108 l1 -95 64 -3 c56 -3 62 -1 59 15 -2
14 -12 18 -41 17 -20 0 -37 3 -38 8 -7 49 -4 53 39 56 54 4 51 25 -4 32 -33 4
-39 8 -39 30 0 22 5 25 43 28 28 2 42 8 42 18 0 19 -116 20 -122 2z"/>
</g>
</svg>
